<?xml version="1.0" encoding="UTF-8"?>
<svg xmlns="http://www.w3.org/2000/svg" xmlns:xlink="http://www.w3.org/1999/xlink" width="858.94pt" height="156.89pt" viewBox="0 0 858.94 156.89" version="1.1">
<defs>
<clipPath id="clip1">
  <path d="M 785 0 L 858.941406 0 L 858.941406 123 L 785 123 Z M 785 0 "/>
</clipPath>
<clipPath id="clip2">
  <path d="M 153 138 L 169 138 L 169 156.890625 L 153 156.890625 Z M 153 138 "/>
</clipPath>
<clipPath id="clip3">
  <path d="M 198 138 L 214 138 L 214 156.890625 L 198 156.890625 Z M 198 138 "/>
</clipPath>
<clipPath id="clip4">
  <path d="M 245 138 L 258 138 L 258 156.890625 L 245 156.890625 Z M 245 138 "/>
</clipPath>
<clipPath id="clip5">
  <path d="M 321 138 L 337 138 L 337 156.890625 L 321 156.890625 Z M 321 138 "/>
</clipPath>
<clipPath id="clip6">
  <path d="M 369 138 L 381 138 L 381 156.890625 L 369 156.890625 Z M 369 138 "/>
</clipPath>
<clipPath id="clip7">
  <path d="M 409 138 L 428 138 L 428 156.890625 L 409 156.890625 Z M 409 138 "/>
</clipPath>
<clipPath id="clip8">
  <path d="M 457 138 L 468 138 L 468 156.890625 L 457 156.890625 Z M 457 138 "/>
</clipPath>
<clipPath id="clip9">
  <path d="M 494 138 L 509 138 L 509 156.890625 L 494 156.890625 Z M 494 138 "/>
</clipPath>
<clipPath id="clip10">
  <path d="M 539 138 L 555 138 L 555 156.890625 L 539 156.890625 Z M 539 138 "/>
</clipPath>
<clipPath id="clip11">
  <path d="M 619 138 L 633 138 L 633 156.890625 L 619 156.890625 Z M 619 138 "/>
</clipPath>
<clipPath id="clip12">
  <path d="M 661 138 L 680 138 L 680 156.890625 L 661 156.890625 Z M 661 138 "/>
</clipPath>
<clipPath id="clip13">
  <path d="M 708 138 L 723 138 L 723 156.890625 L 708 156.890625 Z M 708 138 "/>
</clipPath>
<clipPath id="clip14">
  <path d="M 751 138 L 769 138 L 769 156.890625 L 751 156.890625 Z M 751 138 "/>
</clipPath>
<clipPath id="clip15">
  <path d="M 796 138 L 815 138 L 815 156.890625 L 796 156.890625 Z M 796 138 "/>
</clipPath>
<clipPath id="clip16">
  <path d="M 844 138 L 858.941406 138 L 858.941406 156.890625 L 844 156.890625 Z M 844 138 "/>
</clipPath>
</defs>
<g id="surface1">
<path style=" stroke:none;fill-rule:nonzero;fill:rgb(92.576599%,10.984802%,13.719177%);fill-opacity:1;" d="M 121.082031 22.660156 C 121.082031 34.011719 111.890625 43.203125 100.546875 43.203125 L 59.128906 43.203125 C 49.164063 43.203125 41.085938 51.285156 41.085938 61.246094 L 41.085938 102.667969 C 41.085938 114.011719 31.886719 123.207031 20.542969 123.207031 C 9.199219 123.207031 0 114.011719 0 102.667969 L 0 43.203125 C 0 31.859375 4.601563 21.59375 12.03125 14.160156 C 19.464844 6.726563 29.742188 2.128906 41.085938 2.128906 L 100.546875 2.128906 C 111.890625 2.128906 121.082031 11.316406 121.082031 22.660156 "/>
<path style=" stroke:none;fill-rule:nonzero;fill:rgb(92.576599%,10.984802%,13.719177%);fill-opacity:1;" d="M 72.324219 54.226563 C 72.683594 54.222656 73.046875 54.226563 73.398438 54.238281 C 73.742188 54.25 74.089844 54.269531 74.433594 54.296875 C 85.027344 55.199219 93.425781 64.011719 93.589844 74.867188 C 93.628906 77.640625 93.132813 80.296875 92.175781 82.734375 C 92.164063 82.75 92.164063 82.757813 92.15625 82.773438 C 92.191406 82.757813 92.226563 82.75 92.257813 82.730469 C 94.648438 81.730469 97.273438 81.160156 100.023438 81.121094 C 111.589844 80.945313 121.105469 90.179688 121.277344 101.75 C 121.449219 113.316406 112.214844 122.832031 100.648438 123.007813 L 60.113281 123.609375 C 55.859375 123.675781 52.363281 120.277344 52.296875 116.023438 L 51.691406 75.492188 C 51.519531 63.921875 60.761719 54.398438 72.324219 54.226563 "/>
<path style=" stroke:none;fill-rule:nonzero;fill:rgb(0%,0%,0%);fill-opacity:1;" d="M 163.378906 122.191406 C 160.21875 122.191406 157.304688 121.535156 154.636719 120.230469 C 151.96875 118.921875 150.636719 116.960938 150.636719 114.347656 L 150.636719 10.617188 C 150.636719 8.003906 151.804688 6.042969 154.148438 4.734375 C 156.488281 3.429688 159.019531 2.773438 161.742188 2.773438 L 218.429688 2.773438 C 221.148438 2.773438 223.109375 3.945313 224.308594 6.289063 C 225.507813 8.632813 226.105469 11.105469 226.105469 13.71875 C 226.105469 16.769531 225.453125 19.414063 224.144531 21.644531 C 222.839844 23.878906 220.933594 24.992188 218.429688 24.992188 L 176.117188 24.992188 L 176.117188 52.601563 L 200.785156 52.601563 C 203.289063 52.601563 205.195313 53.609375 206.503906 55.621094 C 207.8125 57.636719 208.464844 59.949219 208.464844 62.566406 C 208.464844 64.742188 207.863281 66.894531 206.667969 69.015625 C 205.46875 71.140625 203.507813 72.203125 200.785156 72.203125 L 176.117188 72.203125 L 176.117188 114.347656 C 176.117188 116.960938 174.785156 118.921875 172.117188 120.230469 C 169.445313 121.535156 166.535156 122.191406 163.378906 122.191406 "/>
<path style=" stroke:none;fill-rule:nonzero;fill:rgb(0%,0%,0%);fill-opacity:1;" d="M 233.621094 122.191406 C 230.027344 122.191406 227.0625 121.375 224.71875 119.738281 C 222.378906 118.105469 221.207031 116.308594 221.207031 114.347656 L 221.207031 52.109375 C 221.207031 49.820313 222.378906 47.972656 224.71875 46.554688 C 227.0625 45.140625 230.027344 44.429688 233.621094 44.429688 C 236.78125 44.429688 239.445313 45.140625 241.628906 46.554688 C 243.804688 47.972656 244.894531 49.820313 244.894531 52.109375 L 244.894531 58.152344 C 245.980469 55.761719 247.53125 53.445313 249.550781 51.210938 C 251.5625 48.980469 253.851563 47.128906 256.410156 45.65625 C 258.96875 44.1875 261.609375 43.453125 264.332031 43.453125 L 269.070313 43.453125 C 271.464844 43.453125 273.5625 44.542969 275.359375 46.71875 C 277.15625 48.898438 278.054688 51.457031 278.054688 54.398438 C 278.054688 57.445313 277.15625 60.0625 275.359375 62.238281 C 273.5625 64.417969 271.464844 65.503906 269.070313 65.503906 L 264.332031 65.503906 C 261.394531 65.503906 258.558594 66.511719 255.839844 68.527344 C 253.113281 70.542969 250.882813 73.34375 249.140625 76.941406 C 247.398438 80.535156 246.527344 84.835938 246.527344 89.84375 L 246.527344 114.347656 C 246.527344 116.308594 245.273438 118.105469 242.769531 119.738281 C 240.265625 121.375 237.214844 122.191406 233.621094 122.191406 "/>
<path style=" stroke:none;fill-rule:nonzero;fill:rgb(0%,0%,0%);fill-opacity:1;" d="M 306.808594 75.46875 L 327.0625 75.46875 C 328.261719 75.46875 329.132813 75.199219 329.679688 74.652344 C 330.222656 74.109375 330.496094 73.074219 330.496094 71.550781 C 330.496094 69.371094 329.921875 67.546875 328.78125 66.078125 C 327.636719 64.605469 326.164063 63.519531 324.367188 62.808594 C 322.570313 62.101563 320.636719 61.746094 318.570313 61.746094 C 316.609375 61.746094 314.730469 62.101563 312.933594 62.808594 C 311.136719 63.519531 309.667969 64.605469 308.523438 66.078125 C 307.378906 67.546875 306.808594 69.371094 306.808594 71.550781 Z M 322.816406 123.824219 C 314.757813 123.824219 307.625 122.378906 301.417969 119.496094 C 295.210938 116.609375 290.335938 112.550781 286.796875 107.324219 C 283.257813 102.097656 281.488281 96.050781 281.488281 89.191406 L 281.488281 77.265625 C 281.488281 71.167969 283.175781 65.558594 286.550781 60.441406 C 289.925781 55.324219 294.445313 51.210938 300.109375 48.109375 C 305.773438 45.003906 312.089844 43.449219 319.058594 43.449219 C 325.375 43.449219 331.175781 44.757813 336.457031 47.371094 C 341.738281 49.984375 346.015625 53.609375 349.28125 58.234375 C 352.546875 62.867188 354.183594 68.28125 354.183594 74.488281 C 354.183594 79.390625 353.390625 82.902344 351.8125 85.027344 C 350.234375 87.148438 348.21875 88.457031 345.769531 88.945313 C 343.320313 89.4375 340.839844 89.679688 338.335938 89.679688 L 306.808594 89.679688 L 306.808594 90.660156 C 306.808594 94.691406 308.332031 97.929688 311.382813 100.382813 C 314.429688 102.832031 318.460938 104.054688 323.472656 104.054688 C 326.84375 104.054688 329.730469 103.542969 332.128906 102.503906 C 334.523438 101.46875 336.644531 100.464844 338.5 99.484375 C 340.351563 98.503906 342.148438 98.011719 343.890625 98.011719 C 345.851563 98.011719 347.539063 98.667969 348.953125 99.972656 C 350.367188 101.28125 351.429688 102.804688 352.140625 104.546875 C 352.847656 106.289063 353.203125 107.8125 353.203125 109.121094 C 353.203125 111.191406 351.949219 113.367188 349.445313 115.65625 C 346.9375 117.941406 343.425781 119.878906 338.90625 121.453125 C 334.386719 123.03125 329.023438 123.824219 322.816406 123.824219 "/>
<path style=" stroke:none;fill-rule:nonzero;fill:rgb(0%,0%,0%);fill-opacity:1;" d="M 392.566406 123.824219 C 386.902344 123.824219 381.703125 123.113281 376.96875 121.699219 C 372.230469 120.285156 368.472656 118.433594 365.695313 116.144531 C 362.917969 113.859375 361.53125 111.410156 361.53125 108.792969 C 361.53125 107.488281 361.882813 105.964844 362.59375 104.21875 C 363.300781 102.480469 364.277344 100.953125 365.53125 99.644531 C 366.78125 98.339844 368.226563 97.683594 369.859375 97.683594 C 371.601563 97.683594 373.347656 98.3125 375.089844 99.5625 C 376.828125 100.816406 378.980469 102.042969 381.542969 103.242188 C 384.097656 104.4375 387.558594 105.039063 391.914063 105.039063 C 396.269531 105.039063 399.046875 104.410156 400.246094 103.160156 C 401.441406 101.90625 402.042969 100.738281 402.042969 99.644531 C 402.042969 97.796875 401.117188 96.351563 399.265625 95.316406 C 397.414063 94.285156 395.042969 93.414063 392.160156 92.703125 C 389.273438 91.996094 386.195313 91.179688 382.929688 90.253906 C 379.664063 89.328125 376.585938 88.046875 373.699219 86.414063 C 370.8125 84.78125 368.445313 82.550781 366.59375 79.714844 C 364.742188 76.886719 363.816406 73.183594 363.816406 68.609375 C 363.816406 64.582031 364.769531 60.632813 366.675781 56.765625 C 368.578125 52.902344 371.765625 49.714844 376.234375 47.207031 C 380.695313 44.703125 386.796875 43.449219 394.527344 43.449219 C 399.320313 43.449219 403.8125 43.941406 408.007813 44.921875 C 412.195313 45.902344 415.628906 47.289063 418.296875 49.085938 C 420.964844 50.886719 422.300781 52.925781 422.300781 55.214844 C 422.300781 56.300781 421.945313 57.800781 421.238281 59.707031 C 420.527344 61.613281 419.496094 63.328125 418.132813 64.851563 C 416.769531 66.378906 415.113281 67.136719 413.152344 67.136719 C 411.734375 67.136719 410.152344 66.730469 408.414063 65.914063 C 406.671875 65.097656 404.710938 64.28125 402.53125 63.460938 C 400.351563 62.644531 397.796875 62.238281 394.855469 62.238281 C 392.675781 62.238281 390.90625 62.511719 389.546875 63.054688 C 388.183594 63.601563 387.175781 64.253906 386.523438 65.015625 C 385.871094 65.777344 385.542969 66.59375 385.542969 67.464844 C 385.542969 68.992188 386.46875 70.160156 388.320313 70.976563 C 390.171875 71.792969 392.566406 72.554688 395.507813 73.261719 C 398.449219 73.972656 401.554688 74.789063 404.820313 75.714844 C 408.085938 76.640625 411.191406 78 414.132813 79.796875 C 417.070313 81.59375 419.464844 83.992188 421.320313 86.988281 C 423.171875 89.984375 424.097656 93.875 424.097656 98.667969 C 424.097656 106.289063 421.402344 112.386719 416.011719 116.960938 C 410.617188 121.535156 402.804688 123.824219 392.566406 123.824219 "/>
<path style=" stroke:none;fill-rule:nonzero;fill:rgb(0%,0%,0%);fill-opacity:1;" d="M 448.269531 122.191406 C 444.566406 122.191406 441.546875 121.375 439.203125 119.738281 C 436.863281 118.105469 435.691406 116.308594 435.691406 114.347656 L 435.691406 7.675781 C 435.691406 5.386719 436.863281 3.539063 439.203125 2.121094 C 441.546875 0.707031 444.566406 0 448.269531 0 C 451.753906 0 454.75 0.707031 457.257813 2.121094 C 459.761719 3.539063 461.011719 5.386719 461.011719 7.675781 L 461.011719 55.867188 C 462.535156 52.710938 465.039063 49.851563 468.527344 47.289063 C 472.011719 44.734375 476.257813 43.453125 481.269531 43.453125 C 486.277344 43.453125 490.878906 45.003906 495.074219 48.105469 C 499.265625 51.210938 502.640625 55.351563 505.203125 60.523438 C 507.757813 65.695313 509.039063 71.441406 509.039063 77.757813 L 509.039063 114.347656 C 509.039063 116.960938 507.707031 118.921875 505.039063 120.230469 C 502.367188 121.535156 499.457031 122.191406 496.296875 122.191406 C 493.359375 122.191406 490.523438 121.535156 487.804688 120.230469 C 485.082031 118.921875 483.71875 116.960938 483.71875 114.347656 L 483.71875 77.757813 C 483.71875 75.6875 483.171875 73.730469 482.085938 71.875 C 480.996094 70.023438 479.578125 68.5 477.839844 67.300781 C 476.09375 66.105469 474.136719 65.503906 471.957031 65.503906 C 470.214844 65.503906 468.5 65.996094 466.8125 66.976563 C 465.121094 67.953125 463.734375 69.34375 462.648438 71.140625 C 461.558594 72.9375 461.011719 75.144531 461.011719 77.757813 L 461.011719 114.347656 C 461.011719 116.308594 459.761719 118.105469 457.257813 119.738281 C 454.75 121.375 451.753906 122.191406 448.269531 122.191406 "/>
<path style=" stroke:none;fill-rule:nonzero;fill:rgb(0%,0%,0%);fill-opacity:1;" d="M 545.304688 75.46875 L 565.558594 75.46875 C 566.757813 75.46875 567.628906 75.199219 568.171875 74.652344 C 568.714844 74.109375 568.992188 73.074219 568.992188 71.550781 C 568.992188 69.371094 568.417969 67.546875 567.273438 66.078125 C 566.132813 64.605469 564.660156 63.519531 562.863281 62.808594 C 561.066406 62.101563 559.132813 61.746094 557.066406 61.746094 C 555.105469 61.746094 553.226563 62.101563 551.429688 62.808594 C 549.632813 63.519531 548.160156 64.605469 547.019531 66.078125 C 545.875 67.546875 545.304688 69.371094 545.304688 71.550781 Z M 561.3125 123.824219 C 553.253906 123.824219 546.121094 122.378906 539.910156 119.496094 C 533.703125 116.609375 528.828125 112.550781 525.289063 107.324219 C 521.753906 102.097656 519.984375 96.050781 519.984375 89.191406 L 519.984375 77.265625 C 519.984375 71.167969 521.671875 65.558594 525.046875 60.441406 C 528.421875 55.324219 532.941406 51.210938 538.605469 48.109375 C 544.265625 45.003906 550.585938 43.449219 557.554688 43.449219 C 563.871094 43.449219 569.667969 44.757813 574.953125 47.371094 C 580.234375 49.984375 584.507813 53.609375 587.777344 58.234375 C 591.042969 62.867188 592.675781 68.28125 592.675781 74.488281 C 592.675781 79.390625 591.886719 82.902344 590.308594 85.027344 C 588.730469 87.148438 586.714844 88.457031 584.261719 88.945313 C 581.8125 89.4375 579.335938 89.679688 576.828125 89.679688 L 545.304688 89.679688 L 545.304688 90.660156 C 545.304688 94.691406 546.828125 97.929688 549.878906 100.382813 C 552.925781 102.832031 556.953125 104.054688 561.964844 104.054688 C 565.339844 104.054688 568.226563 103.542969 570.621094 102.503906 C 573.019531 101.46875 575.140625 100.464844 576.996094 99.484375 C 578.84375 98.503906 580.644531 98.011719 582.386719 98.011719 C 584.34375 98.011719 586.03125 98.667969 587.449219 99.972656 C 588.863281 101.28125 589.925781 102.804688 590.632813 104.546875 C 591.339844 106.289063 591.699219 107.8125 591.699219 109.121094 C 591.699219 111.191406 590.441406 113.367188 587.9375 115.65625 C 585.433594 117.941406 581.921875 119.878906 577.402344 121.453125 C 572.882813 123.03125 567.519531 123.824219 561.3125 123.824219 "/>
<path style=" stroke:none;fill-rule:nonzero;fill:rgb(0%,0%,0%);fill-opacity:1;" d="M 631.390625 105.363281 C 633.132813 105.363281 634.929688 104.683594 636.78125 103.320313 C 638.632813 101.960938 640.238281 100.136719 641.601563 97.847656 C 642.960938 95.5625 643.644531 93.058594 643.644531 90.335938 L 643.644531 89.679688 L 642.988281 89.679688 C 639.9375 89.679688 637.027344 89.875 634.25 90.253906 C 631.472656 90.636719 629.238281 91.453125 627.550781 92.703125 C 625.863281 93.957031 625.019531 95.886719 625.019531 98.503906 C 625.019531 100.898438 625.617188 102.640625 626.816406 103.730469 C 628.015625 104.820313 629.539063 105.363281 631.390625 105.363281 M 620.445313 123.824219 C 614.78125 123.824219 609.878906 122.054688 605.746094 118.511719 C 601.605469 114.976563 599.535156 109.503906 599.535156 102.097656 C 599.535156 95.671875 601.171875 90.660156 604.4375 87.066406 C 607.703125 83.472656 612.195313 80.96875 617.914063 79.554688 C 623.632813 78.140625 630.246094 77.429688 637.761719 77.429688 L 643.644531 77.429688 L 643.644531 75.796875 C 643.644531 73.945313 643.257813 72.09375 642.496094 70.242188 C 641.738281 68.390625 640.480469 66.839844 638.742188 65.585938 C 636.996094 64.335938 634.546875 63.707031 631.390625 63.707031 C 626.921875 63.707031 623.605469 64.144531 621.425781 65.015625 C 619.246094 65.886719 617.558594 66.785156 616.363281 67.710938 C 615.160156 68.636719 613.800781 69.097656 612.277344 69.097656 C 609.554688 69.097656 607.460938 67.738281 605.988281 65.015625 C 604.519531 62.292969 603.785156 59.460938 603.785156 56.519531 C 603.785156 53.90625 605.28125 51.617188 608.273438 49.65625 C 611.269531 47.699219 614.914063 46.175781 619.222656 45.085938 C 623.519531 43.996094 627.6875 43.449219 631.71875 43.449219 C 640.644531 43.449219 647.835938 44.976563 653.28125 48.027344 C 658.726563 51.074219 662.699219 55.023438 665.203125 59.867188 C 667.710938 64.714844 668.964844 69.914063 668.964844 75.46875 L 668.964844 114.347656 C 668.964844 116.527344 667.789063 118.378906 665.453125 119.902344 C 663.105469 121.429688 660.140625 122.1875 656.546875 122.1875 C 653.386719 122.1875 650.722656 121.429688 648.542969 119.902344 C 646.363281 118.378906 645.277344 116.527344 645.277344 114.347656 L 645.277344 110.753906 C 642.335938 114.132813 638.90625 117.152344 634.984375 119.820313 C 631.0625 122.488281 626.214844 123.824219 620.445313 123.824219 "/>
<path style=" stroke:none;fill-rule:nonzero;fill:rgb(0%,0%,0%);fill-opacity:1;" d="M 697.058594 122.191406 C 693.355469 122.191406 690.332031 121.375 687.992188 119.738281 C 685.648438 118.105469 684.480469 116.308594 684.480469 114.347656 L 684.480469 7.675781 C 684.480469 5.386719 685.648438 3.539063 687.992188 2.121094 C 690.332031 0.707031 693.355469 0 697.058594 0 C 700.542969 0 703.539063 0.707031 706.046875 2.121094 C 708.546875 3.539063 709.800781 5.386719 709.800781 7.675781 L 709.800781 114.347656 C 709.800781 116.308594 708.546875 118.105469 706.046875 119.738281 C 703.539063 121.375 700.542969 122.191406 697.058594 122.191406 "/>
<path style=" stroke:none;fill-rule:nonzero;fill:rgb(0%,0%,0%);fill-opacity:1;" d="M 757.660156 122.191406 C 747.3125 122.191406 739.390625 119.984375 733.894531 115.574219 C 728.394531 111.164063 725.644531 104.167969 725.644531 94.582031 L 725.644531 18.292969 C 725.644531 16.007813 727.003906 14.15625 729.726563 12.738281 C 732.449219 11.324219 735.28125 10.617188 738.222656 10.617188 C 741.382813 10.617188 744.292969 11.324219 746.964844 12.738281 C 749.628906 14.15625 750.964844 16.007813 750.964844 18.292969 L 750.964844 44.429688 L 769.425781 44.429688 C 771.492188 44.429688 773.042969 45.386719 774.078125 47.289063 C 775.113281 49.195313 775.632813 51.238281 775.632813 53.417969 C 775.632813 55.703125 775.113281 57.773438 774.078125 59.625 C 773.042969 61.476563 771.492188 62.402344 769.425781 62.402344 L 750.964844 62.402344 L 750.964844 94.582031 C 750.964844 96.980469 751.453125 98.640625 752.433594 99.566406 C 753.414063 100.492188 755.15625 100.953125 757.660156 100.953125 L 764.6875 100.953125 C 768.386719 100.953125 771.109375 102.070313 772.855469 104.300781 C 774.597656 106.535156 775.46875 108.957031 775.46875 111.570313 C 775.46875 114.292969 774.597656 116.746094 772.855469 118.921875 C 771.109375 121.101563 768.386719 122.191406 764.6875 122.191406 "/>
<g clip-path="url(#clip1)" clip-rule="nonzero">
<path style=" stroke:none;fill-rule:nonzero;fill:rgb(0%,0%,0%);fill-opacity:1;" d="M 798.175781 122.191406 C 794.472656 122.191406 791.449219 121.375 789.109375 119.738281 C 786.765625 118.105469 785.597656 116.308594 785.597656 114.347656 L 785.597656 7.675781 C 785.597656 5.386719 786.765625 3.539063 789.109375 2.121094 C 791.449219 0.707031 794.472656 0 798.175781 0 C 801.660156 0 804.652344 0.707031 807.160156 2.121094 C 809.664063 3.539063 810.914063 5.386719 810.914063 7.675781 L 810.914063 55.867188 C 812.441406 52.710938 814.945313 49.851563 818.433594 47.289063 C 821.914063 44.734375 826.164063 43.453125 831.171875 43.453125 C 836.183594 43.453125 840.78125 45.003906 844.976563 48.105469 C 849.167969 51.210938 852.546875 55.351563 855.105469 60.523438 C 857.664063 65.695313 858.945313 71.441406 858.945313 77.757813 L 858.945313 114.347656 C 858.945313 116.960938 857.609375 118.921875 854.941406 120.230469 C 852.269531 121.535156 849.359375 122.191406 846.203125 122.191406 C 843.261719 122.191406 840.429688 121.535156 837.707031 120.230469 C 834.984375 118.921875 833.621094 116.960938 833.621094 114.347656 L 833.621094 77.757813 C 833.621094 75.6875 833.078125 73.730469 831.988281 71.875 C 830.898438 70.023438 829.484375 68.5 827.742188 67.300781 C 825.996094 66.105469 824.039063 65.503906 821.863281 65.503906 C 820.117188 65.503906 818.402344 65.996094 816.714844 66.976563 C 815.027344 67.953125 813.636719 69.34375 812.550781 71.140625 C 811.460938 72.9375 810.914063 75.144531 810.914063 77.757813 L 810.914063 114.347656 C 810.914063 116.308594 809.664063 118.105469 807.160156 119.738281 C 804.652344 121.375 801.660156 122.191406 798.175781 122.191406 "/>
</g>
<g clip-path="url(#clip2)" clip-rule="nonzero">
<path style=" stroke:none;fill-rule:nonzero;fill:rgb(0%,0%,0%);fill-opacity:1;" d="M 168.109375 138.40625 L 168.109375 140.507813 L 162.136719 140.507813 L 162.136719 156.890625 L 159.632813 156.890625 L 159.632813 140.507813 L 153.636719 140.507813 L 153.636719 138.40625 "/>
</g>
<g clip-path="url(#clip3)" clip-rule="nonzero">
<path style=" stroke:none;fill-rule:nonzero;fill:rgb(0%,0%,0%);fill-opacity:1;" d="M 213.59375 156.890625 L 211.078125 156.890625 L 211.078125 148.480469 L 201.117188 148.480469 L 201.117188 156.890625 L 198.605469 156.890625 L 198.605469 138.40625 L 201.117188 138.40625 L 201.117188 146.648438 L 211.078125 146.648438 L 211.078125 138.40625 L 213.59375 138.40625 "/>
</g>
<g clip-path="url(#clip4)" clip-rule="nonzero">
<path style=" stroke:none;fill-rule:nonzero;fill:rgb(0%,0%,0%);fill-opacity:1;" d="M 257.359375 138.40625 L 257.359375 140.445313 L 248.484375 140.445313 L 248.484375 146.582031 L 255.671875 146.582031 L 255.671875 148.542969 L 248.484375 148.542969 L 248.484375 154.851563 L 257.359375 154.851563 L 257.359375 156.890625 L 245.972656 156.890625 L 245.972656 138.40625 "/>
</g>
<g clip-path="url(#clip5)" clip-rule="nonzero">
<path style=" stroke:none;fill-rule:nonzero;fill:rgb(0%,0%,0%);fill-opacity:1;" d="M 336.652344 156.890625 L 334.136719 156.890625 L 334.136719 148.480469 L 324.179688 148.480469 L 324.179688 156.890625 L 321.664063 156.890625 L 321.664063 138.40625 L 324.179688 138.40625 L 324.179688 146.648438 L 334.136719 146.648438 L 334.136719 138.40625 L 336.652344 138.40625 "/>
</g>
<g clip-path="url(#clip6)" clip-rule="nonzero">
<path style=" stroke:none;fill-rule:nonzero;fill:rgb(0%,0%,0%);fill-opacity:1;" d="M 380.421875 138.40625 L 380.421875 140.445313 L 371.546875 140.445313 L 371.546875 146.582031 L 378.730469 146.582031 L 378.730469 148.542969 L 371.546875 148.542969 L 371.546875 154.851563 L 380.421875 154.851563 L 380.421875 156.890625 L 369.03125 156.890625 L 369.03125 138.40625 "/>
</g>
<g clip-path="url(#clip7)" clip-rule="nonzero">
<path style=" stroke:none;fill-rule:nonzero;fill:rgb(0%,0%,0%);fill-opacity:1;" d="M 414.980469 150.027344 L 421.878906 150.027344 L 418.976563 142.507813 C 418.789063 142.042969 418.605469 141.460938 418.425781 140.765625 C 418.328125 141.117188 418.238281 141.441406 418.144531 141.738281 C 418.054688 142.035156 417.96875 142.296875 417.882813 142.519531 Z M 427.09375 156.890625 L 425.15625 156.890625 C 424.933594 156.890625 424.753906 156.835938 424.613281 156.722656 C 424.476563 156.609375 424.375 156.46875 424.304688 156.296875 L 422.578125 151.835938 L 414.285156 151.835938 L 412.554688 156.296875 C 412.492188 156.453125 412.390625 156.589844 412.246094 156.710938 C 412.097656 156.832031 411.917969 156.890625 411.703125 156.890625 L 409.769531 156.890625 L 417.160156 138.40625 L 419.699219 138.40625 "/>
</g>
<g clip-path="url(#clip8)" clip-rule="nonzero">
<path style=" stroke:none;fill-rule:nonzero;fill:rgb(0%,0%,0%);fill-opacity:1;" d="M 459.792969 154.789063 L 467.789063 154.789063 L 467.789063 156.890625 L 457.289063 156.890625 L 457.289063 138.40625 L 459.792969 138.40625 "/>
</g>
<g clip-path="url(#clip9)" clip-rule="nonzero">
<path style=" stroke:none;fill-rule:nonzero;fill:rgb(0%,0%,0%);fill-opacity:1;" d="M 508.785156 138.40625 L 508.785156 140.507813 L 502.8125 140.507813 L 502.8125 156.890625 L 500.308594 156.890625 L 500.308594 140.507813 L 494.3125 140.507813 L 494.3125 138.40625 "/>
</g>
<g clip-path="url(#clip10)" clip-rule="nonzero">
<path style=" stroke:none;fill-rule:nonzero;fill:rgb(0%,0%,0%);fill-opacity:1;" d="M 554.269531 156.890625 L 551.753906 156.890625 L 551.753906 148.480469 L 541.796875 148.480469 L 541.796875 156.890625 L 539.277344 156.890625 L 539.277344 138.40625 L 541.796875 138.40625 L 541.796875 146.648438 L 551.753906 146.648438 L 551.753906 138.40625 L 554.269531 138.40625 "/>
</g>
<g clip-path="url(#clip11)" clip-rule="nonzero">
<path style=" stroke:none;fill-rule:nonzero;fill:rgb(0%,0%,0%);fill-opacity:1;" d="M 621.992188 148.464844 L 621.992188 154.902344 L 625.988281 154.902344 C 626.703125 154.902344 627.316406 154.820313 627.828125 154.65625 C 628.339844 154.496094 628.761719 154.265625 629.09375 153.96875 C 629.421875 153.671875 629.667969 153.320313 629.820313 152.910156 C 629.976563 152.503906 630.054688 152.054688 630.054688 151.5625 C 630.054688 150.609375 629.714844 149.851563 629.039063 149.300781 C 628.363281 148.742188 627.34375 148.464844 625.976563 148.464844 Z M 621.992188 146.6875 L 625.292969 146.6875 C 625.996094 146.6875 626.609375 146.609375 627.125 146.453125 C 627.640625 146.300781 628.066406 146.085938 628.410156 145.808594 C 628.746094 145.53125 629 145.199219 629.164063 144.808594 C 629.324219 144.417969 629.40625 143.988281 629.40625 143.527344 C 629.40625 142.441406 629.082031 141.648438 628.429688 141.140625 C 627.773438 140.632813 626.761719 140.378906 625.382813 140.378906 L 621.992188 140.378906 Z M 619.488281 156.890625 L 619.488281 138.40625 L 625.382813 138.40625 C 626.519531 138.40625 627.496094 138.515625 628.316406 138.738281 C 629.140625 138.964844 629.8125 139.28125 630.34375 139.695313 C 630.871094 140.109375 631.261719 140.613281 631.515625 141.210938 C 631.769531 141.808594 631.898438 142.480469 631.898438 143.230469 C 631.898438 143.6875 631.828125 144.125 631.683594 144.546875 C 631.542969 144.96875 631.328125 145.359375 631.039063 145.71875 C 630.753906 146.078125 630.390625 146.402344 629.957031 146.6875 C 629.523438 146.96875 629.011719 147.203125 628.429688 147.382813 C 629.777344 147.648438 630.796875 148.136719 631.484375 148.839844 C 632.171875 149.546875 632.515625 150.476563 632.515625 151.628906 C 632.515625 152.410156 632.371094 153.121094 632.085938 153.769531 C 631.796875 154.414063 631.375 154.96875 630.820313 155.433594 C 630.265625 155.898438 629.585938 156.257813 628.78125 156.507813 C 627.980469 156.761719 627.058594 156.890625 626.027344 156.890625 "/>
</g>
<g clip-path="url(#clip12)" clip-rule="nonzero">
<path style=" stroke:none;fill-rule:nonzero;fill:rgb(0%,0%,0%);fill-opacity:1;" d="M 667.140625 150.027344 L 674.039063 150.027344 L 671.136719 142.507813 C 670.949219 142.042969 670.765625 141.460938 670.585938 140.765625 C 670.488281 141.117188 670.394531 141.441406 670.308594 141.738281 C 670.214844 142.035156 670.128906 142.296875 670.039063 142.519531 Z M 679.253906 156.890625 L 677.316406 156.890625 C 677.09375 156.890625 676.914063 156.835938 676.773438 156.722656 C 676.636719 156.609375 676.535156 156.46875 676.464844 156.296875 L 674.738281 151.835938 L 666.441406 151.835938 L 664.714844 156.296875 C 664.652344 156.453125 664.550781 156.589844 664.40625 156.710938 C 664.257813 156.832031 664.078125 156.890625 663.863281 156.890625 L 661.929688 156.890625 L 669.320313 138.40625 L 671.859375 138.40625 "/>
</g>
<g clip-path="url(#clip13)" clip-rule="nonzero">
<path style=" stroke:none;fill-rule:nonzero;fill:rgb(0%,0%,0%);fill-opacity:1;" d="M 722.324219 138.40625 L 722.324219 139.332031 C 722.324219 139.625 722.230469 139.902344 722.050781 140.160156 L 711.589844 154.851563 L 722.140625 154.851563 L 722.140625 156.890625 L 708.3125 156.890625 L 708.3125 155.910156 C 708.3125 155.652344 708.394531 155.40625 708.558594 155.175781 L 719.035156 140.445313 L 708.804688 140.445313 L 708.804688 138.40625 "/>
</g>
<g clip-path="url(#clip14)" clip-rule="nonzero">
<path style=" stroke:none;fill-rule:nonzero;fill:rgb(0%,0%,0%);fill-opacity:1;" d="M 756.507813 150.027344 L 763.40625 150.027344 L 760.507813 142.507813 C 760.316406 142.042969 760.132813 141.460938 759.949219 140.765625 C 759.855469 141.117188 759.765625 141.441406 759.675781 141.738281 C 759.582031 142.035156 759.496094 142.296875 759.410156 142.519531 Z M 768.617188 156.890625 L 766.683594 156.890625 C 766.460938 156.890625 766.28125 156.835938 766.144531 156.722656 C 766.007813 156.609375 765.902344 156.46875 765.832031 156.296875 L 764.105469 151.835938 L 755.8125 151.835938 L 754.082031 156.296875 C 754.019531 156.453125 753.917969 156.589844 753.773438 156.710938 C 753.625 156.832031 753.445313 156.890625 753.230469 156.890625 L 751.296875 156.890625 L 758.6875 138.40625 L 761.230469 138.40625 "/>
</g>
<g clip-path="url(#clip15)" clip-rule="nonzero">
<path style=" stroke:none;fill-rule:nonzero;fill:rgb(0%,0%,0%);fill-opacity:1;" d="M 801.914063 150.027344 L 808.816406 150.027344 L 805.910156 142.507813 C 805.722656 142.042969 805.539063 141.460938 805.359375 140.765625 C 805.265625 141.117188 805.171875 141.441406 805.082031 141.738281 C 804.988281 142.035156 804.902344 142.296875 804.816406 142.519531 Z M 814.027344 156.890625 L 812.089844 156.890625 C 811.867188 156.890625 811.6875 156.835938 811.550781 156.722656 C 811.410156 156.609375 811.308594 156.46875 811.238281 156.296875 L 809.511719 151.835938 L 801.21875 151.835938 L 799.488281 156.296875 C 799.429688 156.453125 799.324219 156.589844 799.179688 156.710938 C 799.03125 156.832031 798.851563 156.890625 798.636719 156.890625 L 796.703125 156.890625 L 804.09375 138.40625 L 806.636719 138.40625 "/>
</g>
<g clip-path="url(#clip16)" clip-rule="nonzero">
<path style=" stroke:none;fill-rule:nonzero;fill:rgb(0%,0%,0%);fill-opacity:1;" d="M 846.972656 147.359375 L 849.589844 147.359375 C 850.320313 147.359375 850.964844 147.269531 851.519531 147.09375 C 852.074219 146.917969 852.539063 146.667969 852.910156 146.34375 C 853.285156 146.023438 853.566406 145.636719 853.757813 145.191406 C 853.945313 144.742188 854.039063 144.25 854.039063 143.707031 C 854.039063 142.605469 853.675781 141.777344 852.949219 141.214844 C 852.226563 140.660156 851.140625 140.378906 849.707031 140.378906 L 846.972656 140.378906 Z M 846.972656 149.175781 L 846.972656 156.890625 L 844.480469 156.890625 L 844.480469 138.40625 L 849.707031 138.40625 C 850.875 138.40625 851.886719 138.523438 852.738281 138.757813 C 853.589844 138.996094 854.292969 139.335938 854.847656 139.785156 C 855.402344 140.230469 855.8125 140.773438 856.078125 141.402344 C 856.34375 142.035156 856.480469 142.742188 856.480469 143.527344 C 856.480469 144.179688 856.375 144.789063 856.167969 145.359375 C 855.964844 145.925781 855.664063 146.4375 855.273438 146.886719 C 854.882813 147.335938 854.402344 147.722656 853.839844 148.042969 C 853.277344 148.359375 852.640625 148.601563 851.925781 148.761719 C 852.234375 148.945313 852.507813 149.207031 852.75 149.550781 L 858.144531 156.890625 L 855.921875 156.890625 C 855.46875 156.890625 855.132813 156.710938 854.917969 156.363281 L 850.117188 149.753906 C 849.972656 149.550781 849.8125 149.402344 849.640625 149.3125 C 849.46875 149.21875 849.210938 149.175781 848.867188 149.175781 "/>
</g>
</g>
</svg>
